<svg width="15" height="18" viewBox="0 0 15 18" fill="none" xmlns="http://www.w3.org/2000/svg">
<path fill-rule="evenodd" clip-rule="evenodd" d="M7.63086 2.54382C6.2516 2.54382 5.13348 3.66078 5.13348 5.03862C5.13348 6.41646 6.2516 7.53342 7.63086 7.53342C9.01012 7.53342 10.1282 6.41646 10.1282 5.03862C10.1282 3.66078 9.01012 2.54382 7.63086 2.54382ZM3.46857 5.03862C3.46857 2.74222 5.33209 0.880615 7.63086 0.880615C9.92963 0.880615 11.7931 2.74222 11.7931 5.03862C11.7931 7.33502 9.92963 9.19662 7.63086 9.19662C5.33209 9.19662 3.46857 7.33502 3.46857 5.03862ZM2.70517 15.8494H12.5566C12.1602 13.4896 10.1058 11.6914 7.63086 11.6914C5.15596 11.6914 3.10148 13.4896 2.70517 15.8494ZM0.971191 16.681C0.971191 13.0068 3.95283 10.0282 7.63086 10.0282C11.3089 10.0282 14.2905 13.0068 14.2905 16.681C14.2905 17.1403 13.9178 17.5126 13.4581 17.5126H1.80365C1.3439 17.5126 0.971191 17.1403 0.971191 16.681Z" fill="white"/>
</svg>
