<svg width="18" height="17" viewBox="0 0 18 17" fill="none" xmlns="http://www.w3.org/2000/svg">
<path d="M1.49477 6.64575C3.41477 10.8742 6.83118 14.2361 11.0787 16.0586L11.7596 16.3654C13.3173 17.0671 15.1485 16.534 16.0986 15.102L16.9884 13.761C17.2776 13.325 17.1896 12.7377 16.7854 12.4081L13.7679 9.94653C13.3247 9.58498 12.673 9.66919 12.3339 10.1318L11.4004 11.4055C9.00515 10.2108 7.06045 8.24433 5.87889 5.82227L7.13851 4.87837C7.59603 4.53552 7.67931 3.87651 7.32175 3.42834L4.88732 0.377025C4.56136 -0.0315274 3.98077 -0.120645 3.54959 0.171696L2.21425 1.07708C0.789231 2.04325 0.264867 3.91019 0.97493 5.48952L1.49399 6.64403L1.49477 6.64575Z" fill="white"/>
</svg>
