<svg width="47" height="33" viewBox="0 0 47 33" fill="none" xmlns="http://www.w3.org/2000/svg">
<path d="M46.9999 12.5225C47.0009 12.0202 46.8329 11.5266 46.513 11.092C46.1931 10.6574 45.7327 10.2972 45.1787 10.0481L25.3799 0.798127C24.8093 0.536047 24.1605 0.397949 23.4999 0.397949C22.8393 0.397949 22.1905 0.536047 21.6199 0.798127L1.79179 10.0481C1.24386 10.3041 0.789963 10.6678 0.474698 11.1037C0.159432 11.5396 -0.00634766 12.0325 -0.00634766 12.5341C-0.00634766 13.0356 0.159432 13.5286 0.474698 13.9644C0.789963 14.4003 1.24386 14.7641 1.79179 15.02L7.43179 17.61V24.1081C7.43518 24.616 7.6045 25.1146 7.92346 25.556C8.24242 25.9975 8.70029 26.3669 9.25304 26.6288L21.7374 32.2944C22.2948 32.5373 22.9215 32.6648 23.5587 32.6648C24.1958 32.6648 24.8225 32.5373 25.3799 32.2944L37.8643 26.6288C38.417 26.3669 38.8749 25.9975 39.1939 25.556C39.5128 25.1146 39.6821 24.616 39.6855 24.1081V17.5406L43.328 15.8525V22.1425H46.9999V12.5225ZM36.043 24.085L23.4999 29.7738L11.1037 24.1081V19.3213L21.6199 24.2469C22.1925 24.5044 22.8405 24.6399 23.4999 24.6399C24.1593 24.6399 24.8074 24.5044 25.3799 24.2469L36.0137 19.2519L36.043 24.085ZM23.4999 21.7494L3.67179 12.4994L23.4999 3.22625L43.328 12.4763L23.4999 21.7494Z" fill="#147A62"/>
</svg>
