<svg width="25" height="23" viewBox="0 0 25 23" fill="none" xmlns="http://www.w3.org/2000/svg">
<path fill-rule="evenodd" clip-rule="evenodd" d="M2.89647 11.7275C2.89647 9.97206 3.45107 8.25608 4.49014 6.79652C5.5292 5.33696 7.00607 4.19938 8.73398 3.52761C10.4619 2.85585 12.3632 2.68009 14.1976 3.02255C16.0319 3.36501 17.7169 4.21032 19.0393 5.45157C20.3618 6.69282 21.2624 8.27427 21.6273 9.99594C21.9922 11.7176 21.8049 13.5022 21.0892 15.1239C20.3735 16.7457 19.1614 18.1319 17.6064 19.1071C16.0513 20.0824 14.223 20.6029 12.3527 20.6029C10.5637 20.6059 8.81079 20.1299 7.29975 19.2309C7.16534 19.1511 7.01427 19.0992 6.85671 19.0789C6.69915 19.0585 6.53877 19.0701 6.38639 19.1129L3.18238 20.0098L4.38945 17.3607C4.45961 17.2065 4.48916 17.0387 4.4756 16.8715C4.46205 16.7043 4.40578 16.5426 4.31157 16.4001C3.38367 14.9974 2.89341 13.3786 2.89647 11.7275ZM12.3527 0.763672C5.90134 0.763672 0.671461 5.67231 0.671461 11.7275C0.671461 13.6466 1.19768 15.4531 2.12328 17.0245L0.20421 21.2367C0.121151 21.4192 0.095201 21.6201 0.129401 21.8159C0.1636 22.0117 0.256533 22.1943 0.397316 22.3423C0.538098 22.4903 0.720901 22.5976 0.924318 22.6517C1.12773 22.7057 1.34334 22.7042 1.54589 22.6474L6.55215 21.2461C8.31772 22.1957 10.3178 22.694 12.3527 22.6912C18.8041 22.6912 24.034 17.7826 24.034 11.7275C24.034 5.67231 18.8041 0.763672 12.3527 0.763672ZM14.9037 14.0058L13.4408 14.9727C12.6347 14.5375 11.8946 14.0026 11.2402 13.3825C10.5377 12.724 9.93031 11.9819 9.43353 11.1751L10.3625 10.4348C10.556 10.2806 10.6876 10.069 10.7354 9.83501C10.7831 9.60101 10.7442 9.35872 10.625 9.14835L9.44132 7.06002C9.36255 6.92132 9.25144 6.80111 9.11627 6.70834C8.9811 6.61557 8.82536 6.55264 8.66067 6.52423C8.49597 6.49582 8.32657 6.50268 8.16509 6.54428C8.00361 6.58589 7.85423 6.66117 7.72807 6.76452L7.37652 7.05166C6.53213 7.7429 6.03261 8.87896 6.44646 10.0296C7.1123 11.8497 8.21412 13.5022 9.66716 14.86C11.6841 16.753 13.7334 17.4986 14.9326 17.7889C15.8983 18.0217 16.8116 17.7095 17.4558 17.2167L18.1133 16.7134C18.2519 16.6073 18.3612 16.4714 18.432 16.3172C18.5027 16.163 18.5328 15.9951 18.5197 15.8277C18.5066 15.6602 18.4507 15.4982 18.3567 15.3554C18.2627 15.2126 18.1334 15.0931 17.9798 15.0072L16.113 13.963C15.9284 13.8596 15.7159 13.8087 15.501 13.8163C15.2862 13.8239 15.0784 13.8897 14.9026 14.0058H14.9037Z" fill="#989898"/>
</svg>
