<svg width="26" height="21" viewBox="0 0 26 21" fill="none" xmlns="http://www.w3.org/2000/svg">
<path fill-rule="evenodd" clip-rule="evenodd" d="M0.857422 4.26506C0.857422 3.15733 1.37835 2.09498 2.30562 1.3117C3.23288 0.528421 4.49052 0.0883789 5.80187 0.0883789H20.6352C21.9466 0.0883789 23.2042 0.528421 24.1315 1.3117C25.0587 2.09498 25.5797 3.15733 25.5797 4.26506V16.7951C25.5797 17.9028 25.0587 18.9652 24.1315 19.7485C23.2042 20.5317 21.9466 20.9718 20.6352 20.9718H5.80187C4.49052 20.9718 3.23288 20.5317 2.30562 19.7485C1.37835 18.9652 0.857422 17.9028 0.857422 16.7951V4.26506ZM5.80187 2.17672C5.1462 2.17672 4.51738 2.39674 4.05374 2.78838C3.59011 3.18002 3.32965 3.7112 3.32965 4.26506V16.7951C3.32965 17.349 3.59011 17.8801 4.05374 18.2718C4.51738 18.6634 5.1462 18.8834 5.80187 18.8834H13.2185V11.5742H11.9824C11.6546 11.5742 11.3402 11.4642 11.1084 11.2684C10.8766 11.0726 10.7463 10.807 10.7463 10.5301C10.7463 10.2531 10.8766 9.98756 11.1084 9.79174C11.3402 9.59592 11.6546 9.48591 11.9824 9.48591H13.2185V7.91965C13.2185 6.95039 13.6744 6.02083 14.4857 5.33546C15.2971 4.65009 16.3975 4.26506 17.5449 4.26506H18.2866C18.6144 4.26506 18.9289 4.37507 19.1607 4.57089C19.3925 4.76671 19.5227 5.0323 19.5227 5.30923C19.5227 5.58616 19.3925 5.85175 19.1607 6.04757C18.9289 6.24339 18.6144 6.3534 18.2866 6.3534H17.5449C17.3014 6.3534 17.0603 6.39391 16.8354 6.47262C16.6104 6.55133 16.406 6.6667 16.2338 6.81214C16.0617 6.95758 15.9251 7.13025 15.8319 7.32027C15.7387 7.5103 15.6908 7.71397 15.6908 7.91965V9.48591H18.2866C18.6144 9.48591 18.9289 9.59592 19.1607 9.79174C19.3925 9.98756 19.5227 10.2531 19.5227 10.5301C19.5227 10.807 19.3925 11.0726 19.1607 11.2684C18.9289 11.4642 18.6144 11.5742 18.2866 11.5742H15.6908V18.8834H20.6352C21.2909 18.8834 21.9197 18.6634 22.3833 18.2718C22.847 17.8801 23.1074 17.349 23.1074 16.7951V4.26506C23.1074 3.7112 22.847 3.18002 22.3833 2.78838C21.9197 2.39674 21.2909 2.17672 20.6352 2.17672H5.80187Z" fill="#989898"/>
</svg>
