<svg width="16" height="11" viewBox="0 0 16 11" fill="none" xmlns="http://www.w3.org/2000/svg">
<path d="M3.98266 0.144744C6.65113 -0.0482478 9.3347 -0.0482479 12.0032 0.144744L13.2888 0.237725C14.1447 0.299623 14.8777 0.724342 15.2575 1.33187C15.3061 1.40959 15.2697 1.50369 15.1801 1.5498L9.84601 4.29707C8.70199 4.88628 7.25947 4.89865 6.10111 4.32917L0.731342 1.68925C0.644588 1.6466 0.604766 1.5588 0.643864 1.48153C0.991323 0.794827 1.77249 0.304589 2.69701 0.237725L3.98266 0.144744Z" fill="#147A62"/>
<path d="M0.639494 2.87809C0.506724 2.81282 0.337315 2.88306 0.321839 3.01072C0.105837 4.79243 0.158116 6.59101 0.478674 8.36456C0.647667 9.29954 1.56485 10.0163 2.69701 10.0982L3.98266 10.1912C6.65113 10.3842 9.33471 10.3842 12.0032 10.1912L13.2888 10.0982C14.421 10.0163 15.3382 9.29954 15.5072 8.36456C15.8371 6.53933 15.8828 4.68759 15.6444 2.855C15.6277 2.72644 15.4554 2.65749 15.3233 2.72556L10.5181 5.20038C8.97034 5.99755 7.0187 6.01428 5.4515 5.2438L0.639494 2.87809Z" fill="#147A62"/>
</svg>
