<svg width="24" height="22" viewBox="0 0 24 22" fill="none" xmlns="http://www.w3.org/2000/svg">
<path fill-rule="evenodd" clip-rule="evenodd" d="M0.868164 4.53654C0.868164 3.42882 1.337 2.36646 2.17154 1.58318C3.00608 0.799905 4.13796 0.359863 5.31817 0.359863H18.6682C19.8484 0.359863 20.9803 0.799905 21.8148 1.58318C22.6494 2.36646 23.1182 3.42882 23.1182 4.53654V17.0666C23.1182 18.1743 22.6494 19.2367 21.8148 20.0199C20.9803 20.8032 19.8484 21.2433 18.6682 21.2433H5.31817C4.13796 21.2433 3.00608 20.8032 2.17154 20.0199C1.337 19.2367 0.868164 18.1743 0.868164 17.0666V4.53654ZM5.31817 2.4482C4.72807 2.4482 4.16213 2.66822 3.74486 3.05986C3.32759 3.4515 3.09317 3.98268 3.09317 4.53654V17.0666C3.09317 17.6204 3.32759 18.1516 3.74486 18.5433C4.16213 18.9349 4.72807 19.1549 5.31817 19.1549H18.6682C19.2583 19.1549 19.8243 18.9349 20.2415 18.5433C20.6588 18.1516 20.8932 17.6204 20.8932 17.0666V4.53654C20.8932 3.98268 20.6588 3.4515 20.2415 3.05986C19.8243 2.66822 19.2583 2.4482 18.6682 2.4482H5.31817ZM11.9932 7.66905C11.108 7.66905 10.2591 7.99908 9.63322 8.58654C9.00731 9.174 8.65568 9.97077 8.65568 10.8016C8.65568 11.6324 9.00731 12.4291 9.63322 13.0166C10.2591 13.604 11.108 13.9341 11.9932 13.9341C12.8784 13.9341 13.7273 13.604 14.3532 13.0166C14.9791 12.4291 15.3307 11.6324 15.3307 10.8016C15.3307 9.97077 14.9791 9.174 14.3532 8.58654C13.7273 7.99908 12.8784 7.66905 11.9932 7.66905ZM6.43068 10.8016C6.43068 9.4169 7.01673 8.08896 8.0599 7.10986C9.10307 6.13076 10.5179 5.58071 11.9932 5.58071C13.4685 5.58071 14.8833 6.13076 15.9265 7.10986C16.9697 8.08896 17.5557 9.4169 17.5557 10.8016C17.5557 12.1862 16.9697 13.5142 15.9265 14.4933C14.8833 15.4724 13.4685 16.0224 11.9932 16.0224C10.5179 16.0224 9.10307 15.4724 8.0599 14.4933C7.01673 13.5142 6.43068 12.1862 6.43068 10.8016ZM18.112 6.62488C18.5545 6.62488 18.979 6.45987 19.2919 6.16614C19.6049 5.87241 19.7807 5.47402 19.7807 5.05863C19.7807 4.64323 19.6049 4.24485 19.2919 3.95112C18.979 3.65739 18.5545 3.49237 18.112 3.49237C17.6694 3.49237 17.2449 3.65739 16.932 3.95112C16.619 4.24485 16.4432 4.64323 16.4432 5.05863C16.4432 5.47402 16.619 5.87241 16.932 6.16614C17.2449 6.45987 17.6694 6.62488 18.112 6.62488Z" fill="#989898"/>
</svg>
