<svg width="31" height="30" viewBox="0 0 31 30" fill="none" xmlns="http://www.w3.org/2000/svg">
<path d="M26.4138 5.10883C24.9901 3.7983 23.2964 2.7571 21.4299 2.04503C19.5635 1.33296 17.561 0.964054 15.5377 0.959515C13.5143 0.954976 11.5099 1.31489 9.6396 2.01858C7.7693 2.72226 6.06997 3.75586 4.63924 5.05998C3.2085 6.3641 2.07456 7.91304 1.30255 9.61783C0.530547 11.3226 0.135692 13.1496 0.140672 14.9939C0.145652 16.8382 0.550369 18.6635 1.33157 20.3648C2.11278 22.0661 3.25507 23.6099 4.69283 24.9076C6.11651 26.2181 7.81023 27.2593 9.67671 27.9714C11.5432 28.6835 13.5456 29.0524 15.569 29.0569C17.5923 29.0614 19.5967 28.7015 21.467 27.9978C23.3373 27.2942 25.0367 26.2606 26.4674 24.9564C27.8981 23.6523 29.0321 22.1034 29.8041 20.3986C30.5761 18.6938 30.9709 16.8668 30.966 15.0225C30.961 13.1782 30.5563 11.353 29.7751 9.65165C28.9939 7.95035 27.8516 6.40651 26.4138 5.10883ZM2.38826 15.0082C2.38777 13.9462 2.54226 12.8888 2.84767 11.8638C3.35096 12.8513 4.08189 13.7045 4.57901 14.7176C5.22149 16.0201 6.94666 15.6588 7.70845 16.8001C8.38453 17.8132 7.66251 19.0945 8.16854 20.1545C8.53607 20.9238 9.40277 21.092 10.0007 21.6545C10.6116 22.222 10.5986 22.9995 10.6918 23.7395C10.7971 24.6089 10.9678 25.4707 11.2027 26.3188C11.2027 26.3251 11.2027 26.332 11.2082 26.3382C6.07722 24.6957 2.38826 20.2376 2.38826 15.0082ZM15.5533 27.0082C14.8181 27.008 14.0842 26.952 13.3591 26.8407C13.3667 26.6713 13.3701 26.5132 13.3886 26.4032C13.5552 25.4095 14.101 24.4376 14.8375 23.6938C15.565 22.9601 16.562 22.4638 17.1763 21.6313C17.7784 20.8188 17.9587 19.7251 17.7105 18.7757C17.345 17.3732 15.2544 16.9051 14.1271 16.1445C13.4791 15.707 12.9025 15.0307 12.0515 14.9757C11.6593 14.9507 11.3309 15.0276 10.9421 14.9363C10.5856 14.852 10.3058 14.677 9.92594 14.7226C9.21626 14.8076 8.76851 15.4988 8.00604 15.4051C7.28264 15.317 6.53731 14.5451 6.37275 13.917C6.16156 13.1095 6.86232 12.8476 7.61314 12.7757C7.9265 12.7457 8.27825 12.7132 8.57927 12.8182C8.97559 12.952 9.16278 13.3057 9.51865 13.4845C10.1858 13.8182 10.3209 13.2851 10.2187 12.7451C10.0658 11.9363 9.88754 11.607 10.6788 11.0501C11.2274 10.6663 11.6964 10.3888 11.6086 9.69946C11.5565 9.29446 11.3131 9.11133 11.54 8.70821C11.7121 8.40133 12.1846 8.12445 12.4924 7.94133C13.2871 7.46883 15.8968 7.50383 14.8306 6.18133C14.5173 5.7932 13.9392 5.09945 13.3907 5.00445C12.705 4.88633 12.4006 5.58383 11.9226 5.89133C11.429 6.20945 10.4676 6.5707 9.97325 6.07883C9.30814 5.41695 10.4141 5.20008 10.6589 4.73758C10.7721 4.52195 10.6589 4.22258 10.4683 3.9407C10.7156 3.8457 10.967 3.75758 11.2226 3.67633C11.3827 3.78414 11.5727 3.84908 11.7711 3.86383C12.2298 3.89133 12.6625 3.66508 13.0629 3.95008C13.5072 4.26258 13.8275 4.65758 14.4171 4.75508C14.9876 4.84945 15.5917 4.54633 15.733 4.01383C15.8187 3.69008 15.733 3.3482 15.6507 3.01383C18.2151 3.02728 20.7187 3.72732 22.8503 5.02695C22.7132 4.97945 22.5493 4.98508 22.347 5.0707C21.9308 5.24695 21.3411 5.6957 21.2925 6.1407C21.2369 6.6457 22.0542 6.71695 22.4423 6.71695C23.0252 6.71695 23.6155 6.47945 23.4277 5.8657C23.3461 5.59945 23.235 5.32258 23.056 5.15508C23.4862 5.42718 23.8984 5.72228 24.2903 6.03883C24.2841 6.04445 24.2779 6.04945 24.2717 6.0557C23.8768 6.4307 23.4181 6.72758 23.1479 7.18383C22.9573 7.50508 22.7427 7.65758 22.3566 7.74071C22.1441 7.78633 21.9013 7.8032 21.7231 7.9332C21.2266 8.28945 21.5091 9.14571 21.9795 9.40258C22.574 9.72696 23.4558 9.57446 23.9042 9.11133C24.2546 8.74883 24.461 8.11946 25.0911 8.12008C25.3685 8.11955 25.6351 8.21856 25.833 8.39571C26.0936 8.64196 26.0422 8.87195 26.0977 9.17945C26.1958 9.72571 26.7244 9.42946 27.046 9.15383C27.2804 9.53409 27.4919 9.92571 27.6796 10.327C27.3258 10.7913 27.0446 11.2976 26.1937 10.7563C25.6842 10.432 25.3709 9.96133 24.7311 9.81508C24.1723 9.69008 23.5998 9.82008 23.0478 9.90695C22.4204 10.0063 21.6764 10.0501 21.2006 10.4832C20.7405 10.9007 20.4971 11.4595 20.0075 11.8788C19.0606 12.6913 18.6608 13.5782 19.2738 14.727C19.8635 15.8313 21.097 16.4307 22.4279 16.352C23.7355 16.2726 25.0939 15.5813 25.0562 17.3132C25.0424 17.9263 25.183 18.3507 25.3894 18.9201C25.5807 19.4451 25.5677 19.9538 25.6116 20.4957C25.6533 21.1302 25.7621 21.7596 25.9366 22.3751C24.7075 23.8174 23.1331 24.9847 21.3336 25.7877C19.534 26.5907 17.5569 27.0081 15.5533 27.0082Z" fill="#147A62"/>
</svg>
